<svg xmlns="http://www.w3.org/2000/svg" viewBox="0 0 146.56 443.27"><defs><style>.cls-1{fill:#fff;}.cls-2{fill:#7dc243;}</style></defs><g id="Layer_2" data-name="Layer 2"><g id="Layer_1-2" data-name="Layer 1"><polygon class="cls-1" points="142.89 443.27 106.89 443.27 73.28 154.78 39.67 443.27 3.66 443.27 55.27 0 91.28 0 91.28 0.24 142.89 443.27"/><path class="cls-2" d="M146.56,275.6v.06c0,1.26-.06,2.46-.12,3.72s-.12,2.34-.24,3.48c-.12,1.32-.31,2.64-.48,3.9s-.43,2.46-.67,3.66-.54,2.4-.84,3.66-.6,2.22-1,3.36A74.68,74.68,0,0,1,137.49,311c-.9,1.68-1.92,3.24-2.94,4.8s-2.22,3.24-3.36,4.74a54.68,54.68,0,0,0,5.64-24.13c0-32-28.14-58-62.89-58S7.86,263.84,8.4,294.08c.18,10.38,1.62,17.89,7,26.47C8.4,313.38,0,294.92,0,275.66a70.22,70.22,0,0,1,2.16-17.53c.12-.6.3-1.2.48-1.8a19.86,19.86,0,0,1,.72-2.52c.36-1.14.72-2.28,1.14-3.42A73.28,73.28,0,0,1,146.56,275.6Z"/></g></g></svg>