<svg xmlns="http://www.w3.org/2000/svg" viewBox="0 0 646.66 419.85"><defs><style>.cls-1{fill:#7dc243;}</style></defs><g id="Layer_2" data-name="Layer 2"><g id="Layer_1-2" data-name="Layer 1"><polygon points="646.65 0 646.65 419.85 612.55 419.85 548.88 146.6 548.88 419.85 514.78 419.85 514.78 0 548.88 0 612.55 273.36 612.55 0 646.65 0"/><polygon points="186.5 34.16 186.5 192.36 250.28 192.36 250.28 226.47 186.5 226.47 186.5 419.85 152.4 419.85 152.4 0 250.28 0 250.28 34.16 186.5 34.16"/><polygon points="497.72 0 448.84 419.85 414.45 419.85 382.5 145.63 350.56 419.85 316.22 419.85 267.34 0 301.44 0 333.39 274.21 365.33 0 399.73 0 431.67 274.16 463.62 0 497.72 0"/><polygon points="135.34 419.85 101.24 419.85 69.41 146.6 37.57 419.85 3.47 419.85 52.35 0 86.46 0 86.46 0.23 135.34 419.85"/><path class="cls-1" d="M138.81,261.71v.06c0,1.19-.05,2.33-.11,3.52s-.11,2.22-.23,3.3c-.11,1.25-.28,2.5-.45,3.7s-.4,2.33-.63,3.46-.51,2.28-.79,3.47-.57,2.1-.91,3.18a70.31,70.31,0,0,1-5.46,12.79c-.85,1.59-1.82,3.07-2.79,4.55s-2.1,3.07-3.18,4.49a51.74,51.74,0,0,0,5.34-22.85c0-30.3-26.66-54.91-59.57-54.91S7.45,250.57,8,279.22c.17,9.83,1.53,16.94,6.65,25.07C8,297.5,0,280,0,261.77a66.17,66.17,0,0,1,2.05-16.6,17,17,0,0,1,.45-1.7,19,19,0,0,1,.68-2.39c.34-1.08.69-2.16,1.08-3.24a69.4,69.4,0,0,1,134.55,23.87Z"/></g></g></svg>